<?xml version="1.0" encoding="UTF-8" standalone="no"?>
<svg
   height="128"
   width="128"
   version="1.1"
   id="svg7"
   xmlns="http://www.w3.org/2000/svg"
   xmlns:svg="http://www.w3.org/2000/svg">
  <defs
     id="defs7" />
  <path
     d="m 78.442538,88.505772 v 1.666817 q 20.557407,17.880401 41.114812,0 v -1.666817 z"
     id="path1"
     style="fill:#ffffff;stroke-width:0.0505096" />
  <path
     fill="#478cbf"
     d="m 78.442538,88.505772 7.677459,0.707134 q 0.606115,0.05051 0.757644,0.707135 l 0.202039,3.384143 6.667267,0.505096 0.404077,-3.081086 q 0.101019,-0.555605 0.757644,-0.757644 h 8.182552 q 0.65663,0.202039 0.75765,0.757644 l 0.40407,3.081086 6.66727,-0.505096 0.20204,-3.384143 q 0.15153,-0.656625 0.75764,-0.707135 l 7.67746,-0.707134 V 76.08041 q 1.51529,-1.969874 2.82854,-4.091277 -1.76784,-2.980067 -4.1923,-5.455037 -2.17191,1.010192 -4.14178,2.373951 -2.02039,-1.868855 -4.44485,-3.232614 0.35357,-2.57599 0.40408,-5.15198 -2.98007,-1.414268 -6.21268,-2.121403 -1.31325,2.171913 -2.32344,4.495355 -2.474975,-0.353568 -4.949945,0 -1.010192,-2.323442 -2.323442,-4.495355 -3.232614,0.707135 -6.212681,2.121403 0.05051,2.57599 0.404077,5.15198 -2.424461,1.363759 -4.444845,3.232614 -1.969874,-1.363759 -4.141787,-2.373951 -2.424461,2.47497 -4.192297,5.455037 1.31325,2.121403 2.828538,4.091277 z m 0,1.666817 v 1.969874 c 0,13.940647 41.064302,13.940647 41.064302,0 v -1.969874 l -6.76828,0.606115 -0.25255,3.485162 q -0.10102,0.505096 -0.70714,0.656625 l -8.18255,0.555606 q -0.60612,0 -0.80815,-0.555606 l -0.5051,-3.283124 h -6.566249 l -0.505096,3.283124 q -0.202038,0.555606 -0.808153,0.555606 l -8.182556,-0.555606 q -0.606115,-0.151529 -0.707134,-0.656625 l -0.252548,-3.485162 z"
     id="path2"
     style="fill-rule:nonzero;stroke-width:4;stroke:#ffffff;stroke-opacity:1;stroke-dasharray:none;stroke-linejoin:round;stroke-linecap:round;paint-order:stroke fill markers" />
  <path
     d="m 97.535167,84.818571 c 0.151529,1.717326 2.778023,1.717326 2.929553,0 v -4.343826 c -0.15153,-1.717326 -2.778024,-1.717326 -2.929553,0 z"
     id="path3"
     style="fill:#ffffff;stroke-width:0.0505096" />
  <path
     id="circle3"
     style="fill:#ffffff;stroke-width:0.0505096"
     d="m 114.30436,81.080864 a 4.5458641,4.5458641 0 0 1 -4.54587,4.545864 4.5458641,4.5458641 0 0 1 -4.54586,-4.545864 4.5458641,4.5458641 0 0 1 4.54586,-4.545864 4.5458641,4.5458641 0 0 1 4.54587,4.545864 z" />
  <path
     id="circle4"
     style="fill:#ffffff;stroke-width:0.0505096"
     d="m 92.787266,81.080864 a 4.5458641,4.5458641 0 0 1 -4.545864,4.545864 4.5458641,4.5458641 0 0 1 -4.545864,-4.545864 4.5458641,4.5458641 0 0 1 4.545864,-4.545864 4.5458641,4.5458641 0 0 1 4.545864,4.545864 z" />
  <path
     id="circle5"
     style="fill:#414042;stroke-width:0.0505096"
     d="m 91.676053,81.383919 a 3.030576,3.030576 0 0 1 -3.030576,3.030576 3.030576,3.030576 0 0 1 -3.030576,-3.030576 3.030576,3.030576 0 0 1 3.030576,-3.030576 3.030576,3.030576 0 0 1 3.030576,3.030576 z" />
  <path
     id="circle6"
     style="fill:#414042;stroke-width:0.0505096"
     d="m 112.385,81.383919 a 3.030576,3.030576 0 0 1 -3.03058,3.030576 3.030576,3.030576 0 0 1 -3.03057,-3.030576 3.030576,3.030576 0 0 1 3.03057,-3.030576 3.030576,3.030576 0 0 1 3.03058,3.030576 z" />
  <path
     d="m 8.4425376,88.505772 v 1.666817 q 20.5574074,17.880401 41.1148144,0 v -1.666817 z"
     id="path7"
     style="fill:#ffffff;stroke-width:0.0505096" />
  <path
     fill="#478cbf"
     d="m 8.4425376,88.505772 7.6774594,0.707134 q 0.606115,0.05051 0.757644,0.707135 l 0.202038,3.384143 6.667267,0.505096 0.404077,-3.081086 q 0.101019,-0.555605 0.757644,-0.757644 h 8.182555 q 0.656625,0.202039 0.757644,0.757644 l 0.404077,3.081086 6.667267,-0.505096 0.202039,-3.384143 q 0.151529,-0.656625 0.757644,-0.707135 l 7.677459,-0.707134 V 76.08041 q 1.515288,-1.969874 2.828538,-4.091277 -1.767836,-2.980067 -4.192297,-5.455037 -2.171913,1.010192 -4.141787,2.373951 -2.020384,-1.868855 -4.444845,-3.232614 0.353567,-2.57599 0.404077,-5.15198 -2.980067,-1.414268 -6.212681,-2.121403 -1.31325,2.171913 -2.323442,4.495355 -2.47497,-0.353568 -4.949941,0 -1.010192,-2.323442 -2.323441,-4.495355 -3.232615,0.707135 -6.212681,2.121403 0.05051,2.57599 0.404077,5.15198 -2.424461,1.363759 -4.444845,3.232614 Q 11.97821,67.544288 9.8062968,66.534096 7.381836,69.009066 5.614,71.989133 6.9272496,74.110536 8.4425376,76.08041 Z m 0,1.666817 v 1.969874 c 0,13.940647 41.0643044,13.940647 41.0643044,0 v -1.969874 l -6.768286,0.606115 -0.252548,3.485162 q -0.101019,0.505096 -0.707134,0.656625 l -8.182556,0.555606 q -0.606115,0 -0.808153,-0.555606 l -0.505096,-3.283124 h -6.566248 l -0.505096,3.283124 q -0.202039,0.555606 -0.808154,0.555606 l -8.182555,-0.555606 q -0.606115,-0.151529 -0.707134,-0.656625 l -0.252548,-3.485162 z"
     id="path8"
     style="fill-rule:nonzero;stroke-width:4;stroke-dasharray:none;stroke:#ffffff;stroke-opacity:1;stroke-linejoin:round;stroke-linecap:round;paint-order:stroke fill markers" />
  <path
     d="m 27.535166,84.818571 c 0.151529,1.717326 2.778028,1.717326 2.929557,0 v -4.343826 c -0.151529,-1.717326 -2.778028,-1.717326 -2.929557,0 z"
     id="path9"
     style="fill:#ffffff;stroke-width:0.0505096" />
  <path
     id="circle9"
     style="fill:#ffffff;stroke-width:0.0505096"
     d="m 44.304352,81.080864 a 4.5458641,4.5458641 0 0 1 -4.545864,4.545864 4.5458641,4.5458641 0 0 1 -4.545864,-4.545864 4.5458641,4.5458641 0 0 1 4.545864,-4.545864 4.5458641,4.5458641 0 0 1 4.545864,4.545864 z" />
  <path
     id="circle10"
     style="fill:#ffffff;stroke-width:0.0505096"
     d="M 22.787264,81.080864 A 4.5458641,4.5458641 0 0 1 18.2414,85.626728 4.5458641,4.5458641 0 0 1 13.695536,81.080864 4.5458641,4.5458641 0 0 1 18.2414,76.535 a 4.5458641,4.5458641 0 0 1 4.545864,4.545864 z" />
  <path
     id="circle11"
     style="fill:#414042;stroke-width:0.0505096"
     d="m 21.676053,81.383919 a 3.030576,3.030576 0 0 1 -3.030576,3.030576 3.030576,3.030576 0 0 1 -3.030576,-3.030576 3.030576,3.030576 0 0 1 3.030576,-3.030576 3.030576,3.030576 0 0 1 3.030576,3.030576 z" />
  <path
     id="circle12"
     style="fill:#414042;stroke-width:0.0505096"
     d="m 42.384988,81.383919 a 3.030576,3.030576 0 0 1 -3.030576,3.030576 3.030576,3.030576 0 0 1 -3.030576,-3.030576 3.030576,3.030576 0 0 1 3.030576,-3.030576 3.030576,3.030576 0 0 1 3.030576,3.030576 z" />
  <path
     d="m 97.878083,93.693308 v 2.746872 q -33.878085,29.46644 -67.756171,0 v -2.746872 z"
     id="path1-3"
     style="display:inline;fill:#ffffff;stroke:#ffffff;stroke-width:0;stroke-dasharray:none;stroke-opacity:1" />
  <path
     fill="#478cbf"
     d="m 97.878083,93.693308 -12.652258,1.16534 q -0.998862,0.08324 -1.248578,1.165342 l -0.332954,5.57698 -10.987487,0.83239 -0.665909,-5.07756 Q 71.82442,96.44018 70.742319,96.10723 H 57.257676 q -1.082101,0.33295 -1.248578,1.24857 l -0.665909,5.07756 -10.987487,-0.83239 -0.332954,-5.57698 Q 43.773032,94.941887 42.77417,94.858648 l -12.652258,-1.16534 v -20.47668 q -2.497156,-3.246303 -4.661359,-6.742322 2.913349,-4.911074 6.908799,-8.989762 3.579258,1.66477 6.825561,3.912211 3.329541,-3.079826 7.324991,-5.327267 -0.58267,-4.245165 -0.665908,-8.490331 4.911074,-2.330679 10.23834,-3.496018 2.164202,3.579257 3.828973,7.40823 4.078689,-0.58267 8.157377,0 1.664771,-3.828973 3.828973,-7.40823 5.327266,1.165339 10.23834,3.496018 -0.08324,4.245166 -0.665908,8.490331 3.99545,2.247441 7.324991,5.327267 3.246303,-2.247441 6.825561,-3.912211 3.99545,4.078688 6.908797,8.989762 -2.1642,3.496019 -4.661357,6.742322 z m 0,2.746872 v 3.2463 c 0,22.97384 -67.672933,22.97384 -67.672933,0 v -3.2463 l 11.153965,0.99886 0.416192,5.74346 q 0.166477,0.83239 1.16534,1.0821 l 13.484643,0.91563 q 0.998863,0 1.331817,-0.91563 l 0.832385,-5.4105 h 10.821011 l 0.832385,5.4105 q 0.332954,0.91563 1.331817,0.91563 l 13.484643,-0.91563 q 0.998863,-0.24971 1.16534,-1.0821 l 0.416192,-5.74346 z"
     id="path2-8"
     style="display:inline;fill-rule:nonzero;stroke:#ffffff;stroke-width:4;stroke-linecap:round;stroke-linejoin:round;stroke-dasharray:none;stroke-opacity:1;paint-order:markers stroke fill" />
  <path
     d="m 66.413915,87.616895 c -0.249715,2.83011 -4.57812,2.83011 -4.827835,0 v -7.158514 c 0.249715,-2.830111 4.57812,-2.830111 4.827835,0 z"
     id="path3-6"
     style="fill:#ffffff;stroke:#ffffff;stroke-width:0;stroke-dasharray:none;stroke-opacity:1" />
  <path
     id="circle3-1"
     style="fill:#ffffff;stroke:#ffffff;stroke-width:0"
     d="m 38.778719,81.457245 a 7.4914684,7.4914684 0 0 0 7.491468,7.491468 7.4914684,7.4914684 0 0 0 7.491469,-7.491468 7.4914684,7.4914684 0 0 0 -7.491469,-7.491469 7.4914684,7.4914684 0 0 0 -7.491468,7.491469 z" />
  <path
     id="circle4-7"
     style="fill:#ffffff;stroke:#ffffff;stroke-width:0"
     d="m 74.238337,81.457245 a 7.4914684,7.4914684 0 0 0 7.491468,7.491468 7.4914684,7.4914684 0 0 0 7.491468,-7.491468 7.4914684,7.4914684 0 0 0 -7.491468,-7.491469 7.4914684,7.4914684 0 0 0 -7.491468,7.491469 z" />
  <path
     id="circle5-9"
     style="fill:#414042;stroke:#ffffff;stroke-width:0"
     d="m 76.069584,81.956673 a 4.9943123,4.9943123 0 0 0 4.994312,4.994312 4.9943123,4.9943123 0 0 0 4.994312,-4.994312 4.9943123,4.9943123 0 0 0 -4.994312,-4.994313 4.9943123,4.9943123 0 0 0 -4.994312,4.994313 z" />
  <path
     id="circle6-2"
     style="fill:#414042;stroke:#ffffff;stroke-width:0"
     d="m 41.941784,81.956673 a 4.9943123,4.9943123 0 0 0 4.994312,4.994312 4.9943123,4.9943123 0 0 0 4.994312,-4.994312 4.9943123,4.9943123 0 0 0 -4.994312,-4.994313 4.9943123,4.9943123 0 0 0 -4.994312,4.994313 z" />
  <path
     style="color:#000000;fill:#478cbf;stroke-linecap:round;stroke-linejoin:round;paint-order:stroke fill markers;stroke:#ffffff;stroke-opacity:1;stroke-width:4;stroke-dasharray:none"
     d="m 62.910156,9.9667969 c -9.459013,0 -18.919613,3.9590521 -25.564453,11.8769531 a 3.7079999,3.7079999 0 0 0 0.457031,5.224609 3.7079999,3.7079999 0 0 0 5.22461,-0.457031 c 10.420425,-12.416837 29.343246,-12.416837 39.763672,0 a 3.7079999,3.7079999 0 0 0 5.224609,0.457031 3.7079999,3.7079999 0 0 0 0.457031,-5.224609 C 81.827817,13.925849 72.36917,9.9667969 62.910156,9.9667969 Z m 0,14.8320311 c -5.260259,0 -10.522048,2.191805 -14.203125,6.578125 a 3.7079999,3.7079999 0 0 0 0.457031,5.224609 3.7079999,3.7079999 0 0 0 5.22461,-0.457031 c 4.492899,-5.353676 12.548117,-5.353676 17.041015,0 a 3.7079999,3.7079999 0 0 0 5.22461,0.457031 3.7079999,3.7079999 0 0 0 0.457031,-5.224609 c -3.681076,-4.38632 -8.940913,-6.578125 -14.201172,-6.578125 z"
     id="path3-1" />
</svg>
